inDegrees=yes
name=ik_20201104_152403_orientations
DataType=double
version=3
OpenSimVersion=4.1
endheader
time	pelvis_tilt	pelvis_list	pelvis_rotation	pelvis_tx	pelvis_ty	pelvis_tz	hip_flexion_r	hip_adduction_r	hip_rotation_r	knee_angle_r	knee_angle_r_beta	ankle_angle_r	subtalar_angle_r	mtp_angle_r	hip_flexion_l	hip_adduction_l	hip_rotation_l	knee_angle_l	knee_angle_l_beta	ankle_angle_l	subtalar_angle_l	mtp_angle_l	lumbar_extension	lumbar_bending	lumbar_rotation	arm_flex_r	arm_add_r	arm_rot_r	elbow_flex_r	pro_sup_r	wrist_flex_r	wrist_dev_r	arm_flex_l	arm_add_l	arm_rot_l	elbow_flex_l	pro_sup_l	wrist_flex_l	wrist_dev_l
4.999999999999988	64.50057896932326	-19.77757208224509	-16.22948024850739	0	0.9399999999999999	0	18.74617056210601	-7.811158958330821	0	41.54510031568017	0.7250987885799546	-4.405160055331085	0	0	31.6321343366903	-4.797964113001759	-3.384192167878203	102.3383834778443	1.786141742856949	-4.405160055331085	0	0	0	0	0	0	-3.390610693786745	0	42.6808338764559	40.20513115998406	0	0	0	-3.390610693786745	0	42.6808338764559	40.20513115998406	0	0
5.016666666666654	64.46633001229038	-19.74991433665983	-16.18614765468585	0	0.9399999999999999	0	18.74658773163893	-7.811260734210434	0	41.54533579797151	0.7251028985212686	-4.405195600203005	0	0	31.6230484094151	-4.811500994484516	-3.389452555433463	102.337803805361	1.786131625663532	-4.405195600203005	0	0	0	0	0	0	-3.390698887613626	0	42.68138249349135	40.20531089204509	0	0	0	-3.390698887613626	0	42.68138249349135	40.20531089204509	0	0
5.033333333333321	64.42110517607406	-19.79825122072896	-16.14897611447078	0	0.9399999999999999	0	18.90122600956777	-7.84573465517261	0	41.63027449985859	0.7265853585315679	-4.41657199170981	0	0	31.67855150108435	-4.868504651161415	-3.352633518218028	102.3318842929142	1.786028310681223	-4.41657199170981	0	0	0	0	0	0	-3.423890870522821	0	42.88160224746227	40.26831658376472	0	0	0	-3.423890870522821	0	42.88160224746227	40.26831658376472	0	0
5.049999999999987	64.4660069838002	-19.86296899782569	-16.09217225942633	0	0.9399999999999999	0	18.90574290944755	-7.846877564400176	0	41.63271049440301	0.7266278746569289	-4.416974114267298	0	0	31.73818321019653	-4.880586926752803	-3.355166367925086	102.5024619147387	1.789005451812282	-4.416974114267298	0	0	0	0	0	0	-3.424809658659953	0	42.8875752552579	40.27032102928855	0	0	0	-3.424809658659953	0	42.8875752552579	40.27032102928855	0	0
5.066666666666654	64.45426686821374	-19.86542199006574	-16.05983686668182	0	0.9399999999999999	0	18.98159124902072	-7.862681786938931	0	41.67483468232855	0.7273630804309583	-4.422000997981829	0	0	31.7977609009827	-4.926204998515814	-3.337249376235631	102.6464161574369	1.79151792731958	-4.422000997981829	0	0	0	0	0	0	-3.441542547240366	0	42.98481067565252	40.29986570069198	0	0	0	-3.441542547240366	0	42.98481067565252	40.29986570069198	0	0
5.083333333333321	64.45035689496542	-19.72129969342001	-16.0478127738474	0	0.9399999999999999	0	18.98341277936204	-7.86313884171568	0	41.67582314677583	0.7273803323901021	-4.422161437340856	0	0	31.79123279678994	-4.961382371970557	-3.318778173839103	102.6913362919396	1.792301931567091	-4.422161437340856	0	0	0	0	0	0	-3.441915669562853	0	42.98721602440111	40.30066884766317	0	0	0	-3.441915669562853	0	42.98721602440111	40.30066884766317	0	0
5.099999999999987	64.45686797780606	-19.53697408298916	-16.03883143375612	0	0.9399999999999999	0	18.98391606531052	-7.86325988717579	0	41.67610835053507	0.7273853101347401	-4.422203488513444	0	0	31.77919133779514	-5.003913844225383	-3.295973954431195	102.6983743959463	1.792424769655106	-4.422203488513444	0	0	0	0	0	0	-3.442022892227764	0	42.98787643395493	40.30088346091935	0	0	0	-3.442022892227764	0	42.98787643395493	40.30088346091935	0	0
5.116666666666654	64.46604667421549	-19.43036070186946	-16.02371564458026	0	0.9399999999999999	0	18.98442505464172	-7.86338234948161	0	41.67639668322337	0.7273903424894921	-4.422246035855521	0	0	31.77691067359018	-5.030864704282029	-3.285288668619358	102.7044888887097	1.792531487685917	-4.422246035855521	0	0	0	0	0	0	-3.442131295725101	0	42.98854436190999	40.30110056898167	0	0	0	-3.442131295725101	0	42.98854436190999	40.30110056898167	0	0
5.13333333333332	64.50749454244158	-19.37887386728106	-16.01718082666982	0	0.9399999999999999	0	18.98892275487205	-7.864516658367477	0	41.67882237696314	0.727432678831896	-4.422644619249325	0	0	31.80599004642616	-5.044328733630776	-3.283647255586145	102.8016091564493	1.794226556128391	-4.422644619249325	0	0	0	0	0	0	-3.443047575142518	0	42.99448840002989	40.30309187590892	0	0	0	-3.443047575142518	0	42.99448840002989	40.30309187590892	0	0
5.149999999999987	64.56683522027231	-19.30758715351669	-16.00618367001464	0	0.9399999999999999	0	18.99334808959103	-7.865632289738596	0	41.68120935440259	0.7274743394473853	-4.423036571692669	0	0	31.84582512831566	-5.062585336506134	-3.282087091813901	102.9314941220101	1.796493476426266	-4.423036571692669	0	0	0	0	0	0	-3.443949293644482	0	43.00033646552755	40.30505061988222	0	-7.349831428523729e-50	0	-3.443949293644482	0	43.00033646552755	40.30505061988222	0	-7.349831428523729e-50
5.166666666666654	64.60867655291096	-19.19143099861477	-15.96479868605244	0	0.9399999999999999	0	18.99715345213106	-7.866592853126534	0	41.68325928618221	0.7275101175063808	-4.423374150556919	0	0	31.87704601933893	-5.100235752038702	-3.275636064282395	103.0280669092315	1.798178989531108	-4.423374150556919	0	0	0	0	0	0	-3.44472383037619	0	43.00536609632646	40.30673664750446	0	0	0	-3.44472383037619	0	43.00536609632646	40.30673664750446	0	0
5.18333333333332	64.60275832607343	-19.07412912931051	-15.92202526438857	0	0.9399999999999999	0	18.99762332041343	-7.866705461392015	0	41.68352630586879	0.7275147778790793	-4.42341322805307	0	0	31.8734701753379	-5.133835869730513	-3.267881430142779	103.0331605726197	1.79826789072822	-4.42341322805307	0	0	0	0	0	0	-3.444824215015205	0	43.00598233452062	40.30693647030856	0	6.737469852390141e-35	0	-3.444824215015205	0	43.00598233452062	40.30693647030856	0	6.737469852390141e-35
5.199999999999987	64.57743219658649	-19.00295625360734	-15.88998138568197	0	0.9399999999999999	0	18.99806826786494	-7.866812286683868	0	41.68377875130452	0.7275191838831143	-4.423450316315975	0	0	31.86321777054361	-5.155053596237837	-3.262628223348349	103.0397070811473	1.798382148856537	-4.423450316315975	0	0	0	0	0	0	-3.444919135296836	0	43.00656603397408	40.30712595655174	0	2.443601662300766e-35	0	-3.444919135296836	0	43.00656603397408	40.30712595655174	0	2.443601662300766e-35
5.216666666666653	64.5401147371126	-18.97540959017935	-15.85285786510072	0	0.9399999999999999	0	18.99848042259306	-7.866911532213372	0	41.68401193343992	0.727523253679134	-4.423484799374715	0	0	31.85140585383854	-5.16686028530777	-3.266045093679105	103.0452255218392	1.798478463816187	-4.423484799374715	0	0	0	0	0	0	-3.445006835790493	0	43.00710694389539	40.30730188437705	0	-4.785566797493432e-51	0	-3.445006835790493	0	43.00710694389539	40.30730188437705	0	-4.785566797493432e-51
5.23333333333332	64.50348422817216	-18.95009577386247	-15.81014852566526	0	0.9399999999999999	0	18.99889327698435	-7.867010955879231	0	41.68424548147567	0.7275273298613194	-4.42351934485444	0	0	31.84138897818152	-5.179496600166451	-3.271548424869154	103.0501959983026	1.798565214995865	-4.42351934485444	0	0	0	0	0	0	-3.445094675646355	0	43.00764878025591	40.30747812503103	0	0	0	-3.445094675646355	0	43.00764878025591	40.30747812503103	0	0
5.249999999999987	64.4745812504934	-18.91407981369768	-15.78409645949461	0	0.9399999999999999	0	18.99932408009856	-7.867114750288372	0	41.68448905031477	0.727531580939517	-4.423555412352708	0	0	31.83109053468548	-5.191705228533369	-3.27033785597627	103.0602543604815	1.798740766533244	-4.423555412352708	0	0	0	0	0	0	-3.445186289927805	0	43.0082142142588	40.30766209701795	0	2.421222753818043e-35	0	-3.445186289927805	0	43.0082142142588	40.30766209701795	0	2.421222753818043e-35
5.266666666666653	64.44718248166537	-18.90883285078555	-15.78363759248984	0	0.9399999999999999	0	19.07212250104229	-7.882345339853599	0	41.72489903691907	0.7282368682564487	-4.428417501828623	0	0	31.86502471643067	-5.232677941970989	-3.243593708507003	103.1637430433145	1.800546984787234	-4.428417501828623	0	0	0	0	0	0	-3.461228757235349	0	43.10162221116259	40.3360843924928	0	0	0	-3.461228757235349	0	43.10162221116259	40.3360843924928	0	0
5.28333333333332	64.40983778273299	-18.91270724884143	-15.79232123741261	0	0.9399999999999999	0	19.14055869904317	-7.896576428507401	0	41.76295171938754	0.7289010128547396	-4.432952269886214	0	0	31.88624006684511	-5.266400653426686	-3.216246720832281	103.2314122420288	1.801728035106984	-4.432952269886214	0	0	0	0	0	0	-3.476365825292369	0	43.18933964367169	40.36268349661755	0	0	0	-3.476365825292369	0	43.18933964367169	40.36268349661755	0	0
5.299999999999986	64.36538166925348	-18.91642955250932	-15.79107531182141	0	0.9399999999999999	0	19.20008845106708	-7.908680806552437	0	41.79619571918427	0.7294812301077248	-4.436768653094134	0	0	31.89960309738537	-5.298252254155793	-3.197997057830321	103.2870367917903	1.802698866645262	-4.436768653094134	0	0	0	0	0	0	-3.489661766687963	0	43.26541645508182	40.38546720911306	0	0	0	-3.489661766687963	0	43.26541645508182	40.38546720911306	0	0
